<svg width="80" height="80" fill="none" xmlns="http://www.w3.org/2000/svg"><path d="M72.023 47.235l7.65-6.567.2-.172-.2-.17-7.47-6.413c-1.098-1.17-1.31-2.14-.916-3.643l3.34-9.511.088-.25-.258-.047-9.698-1.823c-1.504-.372-2.264-1.216-2.588-2.667L60.304 6.04l-.048-.259-.247.087-9.305 3.269c-1.504.31-2.432.31-3.767-1.055L40.172.2 40 0l-.171.2-6.766 7.881c-.87.943-1.715 1.366-3.082.823l-9.796-3.441-.248-.087-.048.258L17.97 15.84c-.17 1.162-.381 1.837-2.124 2.115l-9.934 1.868-.258.048.088.248 3.263 9.29c.818 2.111.354 2.407-1.02 3.604L.326 39.585l-.199.172.2.17 7.465 6.41c.976.926 1.44 1.812.916 3.66l-3.337 9.498-.087.248.258.049 9.671 1.818c1.742.34 2.291 1.268 2.621 2.705l1.86 9.9.05.259.248-.089 9.263-3.253c1.587-.403 2.6-.192 3.648 1.031l6.556 7.637.171.2.172-.2 6.395-7.45c.935-.946 1.948-1.495 3.686-.927l9.484 3.333.25.087.047-.26 1.817-9.665c.338-1.618.971-2.166 2.706-2.625l9.9-1.86.259-.05-.087-.248-3.258-9.275c-.53-1.614-.36-2.542 1.022-3.625zM40 67.492c-15.11 0-27.36-12.25-27.36-27.36 0-15.111 12.25-27.36 27.36-27.36.422 0 .842.012 1.259.03 14.525.66 26.102 12.641 26.102 27.33 0 15.111-12.25 27.36-27.36 27.36z" fill="#FFDB05"/><path d="M41.26 12.803V67.46c-.418.02-.837.032-1.26.032 15.112 0 27.362-12.25 27.362-27.36 0-14.69-11.577-26.672-26.103-27.33z" fill="#FFAA05"/><path d="M41.26 12.803A27.647 27.647 0 0040 12.77c-15.11 0-27.36 12.25-27.36 27.361S24.89 67.492 40 67.492c.423 0 .842-.012 1.26-.032V12.803z" fill="#ED9512"/></svg>